<svg width="26" height="25" viewBox="0 0 26 25" fill="none" xmlns="http://www.w3.org/2000/svg">
<path d="M20.5265 19.7368C21.2524 19.7368 21.9485 20.0141 22.4618 20.5076C22.975 21.0011 23.2634 21.6705 23.2634 22.3684C23.2634 23.0664 22.975 23.7357 22.4618 24.2292C21.9485 24.7227 21.2524 25 20.5265 25C19.8007 25 19.1045 24.7227 18.5913 24.2292C18.078 23.7357 17.7896 23.0664 17.7896 22.3684C17.7896 21.6705 18.078 21.0011 18.5913 20.5076C19.1045 20.0141 19.8007 19.7368 20.5265 19.7368ZM20.5265 21.0526C20.1636 21.0526 19.8155 21.1913 19.5589 21.438C19.3023 21.6848 19.1581 22.0195 19.1581 22.3684C19.1581 22.7174 19.3023 23.0521 19.5589 23.2988C19.8155 23.5456 20.1636 23.6842 20.5265 23.6842C20.8895 23.6842 21.2375 23.5456 21.4942 23.2988C21.7508 23.0521 21.895 22.7174 21.895 22.3684C21.895 22.0195 21.7508 21.6848 21.4942 21.438C21.2375 21.1913 20.8895 21.0526 20.5265 21.0526ZM8.21061 19.7368C8.93647 19.7368 9.6326 20.0141 10.1459 20.5076C10.6591 21.0011 10.9475 21.6705 10.9475 22.3684C10.9475 23.0664 10.6591 23.7357 10.1459 24.2292C9.6326 24.7227 8.93647 25 8.21061 25C7.48475 25 6.78861 24.7227 6.27535 24.2292C5.76209 23.7357 5.47374 23.0664 5.47374 22.3684C5.47374 21.6705 5.76209 21.0011 6.27535 20.5076C6.78861 20.0141 7.48475 19.7368 8.21061 19.7368ZM8.21061 21.0526C7.84768 21.0526 7.49961 21.1913 7.24298 21.438C6.98635 21.6848 6.84217 22.0195 6.84217 22.3684C6.84217 22.7174 6.98635 23.0521 7.24298 23.2988C7.49961 23.5456 7.84768 23.6842 8.21061 23.6842C8.57354 23.6842 8.92161 23.5456 9.17824 23.2988C9.43487 23.0521 9.57904 22.7174 9.57904 22.3684C9.57904 22.0195 9.43487 21.6848 9.17824 21.438C8.92161 21.1913 8.57354 21.0526 8.21061 21.0526ZM23.2634 3.94737H4.47889L7.96429 11.8421H19.1581C19.3709 11.8424 19.5808 11.7947 19.7709 11.7029C19.961 11.611 20.1261 11.4775 20.2528 11.3132L24.3581 6.05H24.3595C24.5113 5.85442 24.6035 5.62211 24.6258 5.37903C24.6482 5.13596 24.5998 4.89169 24.4861 4.67354C24.3723 4.45539 24.1978 4.27194 23.9818 4.14371C23.7659 4.01547 23.5172 3.94749 23.2634 3.94737ZM19.1581 13.1579H8.02724L6.97902 15.2105L6.84217 15.7895C6.84217 16.1384 6.98635 16.4731 7.24298 16.7199C7.49961 16.9666 7.84768 17.1053 8.21061 17.1053H23.2634V18.4211H8.21061C7.73407 18.4213 7.26574 18.3019 6.85193 18.0746C6.43813 17.8474 6.09321 17.5202 5.8513 17.1254C5.60938 16.7306 5.47886 16.282 5.47264 15.8238C5.46642 15.3656 5.58473 14.9139 5.81585 14.5132L6.80112 12.5737L1.83097 1.31579H0V0H2.73687L3.89867 2.63158H23.2634C23.7805 2.63163 24.287 2.77253 24.7242 3.03797C25.1615 3.3034 25.5116 3.68251 25.734 4.13139C25.9563 4.58026 26.0419 5.08053 25.9808 5.57424C25.9197 6.06796 25.7143 6.53493 25.3886 6.92105L21.4009 12.0342C21.1488 12.3813 20.8133 12.6648 20.4228 12.8604C20.0323 13.056 19.5984 13.1581 19.1581 13.1579Z" fill="white"/>
</svg>
