<svg width="26" height="20" viewBox="0 0 26 20" fill="none" xmlns="http://www.w3.org/2000/svg">
<path d="M25.1333 20.0001H0.866667C0.636812 20.0001 0.416372 19.9043 0.253841 19.7338C0.0913092 19.5633 0 19.3321 0 19.091C0 18.8499 0.0913092 18.6186 0.253841 18.4482C0.416372 18.2777 0.636812 18.1819 0.866667 18.1819H25.1333C25.3632 18.1819 25.5836 18.2777 25.7462 18.4482C25.9087 18.6186 26 18.8499 26 19.091C26 19.3321 25.9087 19.5633 25.7462 19.7338C25.5836 19.9043 25.3632 20.0001 25.1333 20.0001Z" fill="white"/>
<path d="M25.1333 10.9092H0.866667C0.636812 10.9092 0.416372 10.8135 0.253841 10.643C0.0913092 10.4725 0 10.2413 0 10.0002C0 9.75905 0.0913092 9.52782 0.253841 9.35733C0.416372 9.18684 0.636812 9.09106 0.866667 9.09106H25.1333C25.3632 9.09106 25.5836 9.18684 25.7462 9.35733C25.9087 9.52782 26 9.75905 26 10.0002C26 10.2413 25.9087 10.4725 25.7462 10.643C25.5836 10.8135 25.3632 10.9092 25.1333 10.9092Z" fill="white"/>
<path d="M25.1333 1.81818H0.866667C0.636812 1.81818 0.416372 1.7224 0.253841 1.55192C0.0913092 1.38143 0 1.1502 0 0.909091C0 0.667985 0.0913092 0.436754 0.253841 0.266267C0.416372 0.0957791 0.636812 0 0.866667 0H25.1333C25.3632 0 25.5836 0.0957791 25.7462 0.266267C25.9087 0.436754 26 0.667985 26 0.909091C26 1.1502 25.9087 1.38143 25.7462 1.55192C25.5836 1.7224 25.3632 1.81818 25.1333 1.81818Z" fill="white"/>
</svg>
