<svg width="20" height="20" viewBox="0 0 20 20" fill="none" xmlns="http://www.w3.org/2000/svg">
<path d="M17.7719 19.0576L0.612822 1.89847C0.45029 1.73594 0.362141 1.51234 0.367767 1.27686C0.373393 1.04138 0.472333 0.813312 0.64282 0.642824C0.813308 0.472337 1.04138 0.373397 1.27686 0.367771C1.51234 0.362145 1.73594 0.450294 1.89847 0.612826L19.0576 17.772C19.2201 17.9345 19.3083 18.1581 19.3027 18.3936C19.297 18.629 19.1981 18.8571 19.0276 19.0276C18.8571 19.1981 18.629 19.297 18.3936 19.3027C18.1581 19.3083 17.9345 19.2201 17.7719 19.0576Z" fill="black"/>
<path d="M19.0576 1.89846L1.89847 19.0576C1.73594 19.2201 1.51234 19.3083 1.27686 19.3026C1.04138 19.297 0.813312 19.1981 0.642824 19.0276C0.472337 18.8571 0.373397 18.629 0.367772 18.3936C0.362146 18.1581 0.450294 17.9345 0.612826 17.7719L17.772 0.612816C17.9345 0.450284 18.1581 0.362135 18.3936 0.36776C18.629 0.373387 18.8571 0.472326 19.0276 0.642814C19.1981 0.813302 19.297 1.04137 19.3027 1.27685C19.3083 1.51233 19.2201 1.73593 19.0576 1.89846Z" fill="black"/>
</svg>
